<svg xmlns="http://www.w3.org/2000/svg" width="2825" height="798" viewBox="0 0 2825 798" version="1.1"><path d="M 111.035 1.934 L 110 3.869 110 177.243 L 110 350.618 111.250 352.319 L 112.500 354.021 173.500 353.761 L 234.500 353.500 234.774 179 L 235.047 4.500 234.505 2.250 L 233.962 0 173.016 0 L 112.070 0 111.035 1.934 M 1369.230 129.039 L 1361.960 129.950 1352.730 132.082 L 1343.500 134.214 1333.399 138.124 L 1323.298 142.035 1313.899 148.226 L 1304.500 154.417 1295.711 162.889 L 1286.923 171.360 1282.054 177.930 L 1277.184 184.500 1273.177 192 L 1269.169 199.500 1266.202 208 L 1263.236 216.500 1261.618 225.926 L 1260 235.352 1260 248.269 L 1260 261.186 1262.016 271.077 L 1264.031 280.967 1266.608 288.234 L 1269.185 295.500 1274.990 307.500 L 1280.796 319.500 1285.961 327.378 L 1291.127 335.256 1296.063 341.777 L 1301 348.298 1301 349.052 L 1301 349.806 1290.750 356.066 L 1280.500 362.325 1269.492 370.134 L 1258.484 377.943 1251.056 384.721 L 1243.629 391.500 1236.134 400.500 L 1228.640 409.500 1223.734 417 L 1218.829 424.500 1215.022 432.500 L 1211.215 440.500 1208.715 448.500 L 1206.215 456.500 1204.608 465.926 L 1203 475.352 1203 490.104 L 1203 504.855 1204.072 512.566 L 1205.145 520.276 1207.635 528.888 L 1210.125 537.500 1212.772 543.500 L 1215.419 549.500 1220.117 557.500 L 1224.815 565.500 1232.777 575 L 1240.739 584.500 1246.970 589.907 L 1253.202 595.313 1259.828 599.756 L 1266.454 604.200 1278.477 610.061 L 1290.500 615.922 1302 619.365 L 1313.500 622.809 1326.500 625.100 L 1339.500 627.392 1360 627.420 L 1380.500 627.448 1392 625.662 L 1403.500 623.875 1412.500 621.886 L 1421.500 619.898 1433.760 615.828 L 1446.020 611.758 1459.760 605.013 L 1473.500 598.267 1482.500 592.289 L 1491.500 586.312 1499.925 579.590 L 1508.351 572.867 1530.425 594.897 L 1552.500 616.927 1556.218 618.463 L 1559.936 620 1596.468 620 L 1633 620 1633 618.630 L 1633 617.261 1617.750 601.313 L 1602.500 585.365 1577.500 560.149 L 1552.500 534.933 1552.215 534.110 L 1551.929 533.288 1558.247 525.394 L 1564.565 517.500 1568.141 512.500 L 1571.716 507.500 1577.269 498 L 1582.822 488.500 1588.386 476.338 L 1593.951 464.175 1597.076 456.338 L 1600.201 448.500 1602.588 441.914 L 1604.975 435.328 1608.042 425.414 L 1611.109 415.500 1614.581 401.757 L 1618.053 388.014 1620.527 375.870 L 1623 363.725 1623 359.979 L 1623 356.233 1620.750 355.630 L 1618.500 355.027 1593.500 355.132 L 1568.500 355.237 1565.500 355.871 L 1562.500 356.506 1559.799 370.503 L 1557.099 384.500 1554.462 397 L 1551.826 409.500 1546.037 427.075 L 1540.247 444.651 1535.517 455.575 L 1530.786 466.500 1524.643 477.793 L 1518.500 489.086 1516.241 491.793 L 1513.981 494.500 1498.454 478.500 L 1482.926 462.500 1467.760 446 L 1452.595 429.500 1444.040 420.500 L 1435.485 411.500 1419.492 393.703 L 1403.500 375.905 1397.276 368.815 L 1391.052 361.725 1391.535 360.944 L 1392.017 360.164 1405.649 353.031 L 1419.280 345.899 1429.126 339.699 L 1438.971 333.500 1448.201 327 L 1457.431 320.500 1466.983 311 L 1476.534 301.500 1481.772 294.500 L 1487.009 287.500 1491.401 279 L 1495.793 270.500 1498.290 262.500 L 1500.786 254.500 1502.020 245 L 1503.253 235.500 1502.613 224.827 L 1501.974 214.153 1499.483 204.335 L 1496.993 194.517 1493.574 187.317 L 1490.155 180.118 1485.914 173.809 L 1481.673 167.500 1474.061 159.940 L 1466.449 152.380 1460.097 148.066 L 1453.744 143.751 1446.622 140.484 L 1439.500 137.217 1431.500 134.597 L 1423.500 131.977 1416.500 130.427 L 1409.500 128.877 1393 128.502 L 1376.500 128.128 1369.230 129.039 M 1368.638 173.521 L 1362.777 175.004 1356.138 178.157 L 1349.500 181.309 1341.915 188.905 L 1334.330 196.500 1330.727 203 L 1327.123 209.500 1324.420 218.500 L 1321.718 227.500 1321.655 241 L 1321.592 254.500 1322.919 260.500 L 1324.245 266.500 1326.751 274 L 1329.256 281.500 1332.754 288.500 L 1336.253 295.500 1342.574 305 L 1348.895 314.500 1353.779 320.500 L 1358.662 326.500 1360.238 326.377 L 1361.813 326.253 1375.657 318.009 L 1389.500 309.765 1399.026 302.997 L 1408.552 296.229 1416.241 289.049 L 1423.929 281.868 1428.609 275.684 L 1433.288 269.500 1436.650 262.471 L 1440.012 255.443 1441.489 248.471 L 1442.965 241.500 1442.983 234.208 L 1443 226.916 1441.421 219.271 L 1439.842 211.626 1437.406 205.563 L 1434.970 199.500 1430.498 193.537 L 1426.026 187.574 1421.763 184.189 L 1417.500 180.804 1413.548 178.779 L 1409.596 176.753 1404.048 174.775 L 1398.500 172.798 1386.500 172.418 L 1374.500 172.038 1368.638 173.521 M 2728 173.052 L 2720.500 173.986 2710 176.105 L 2699.500 178.225 2690.729 181.090 L 2681.959 183.955 2672.773 188.560 L 2663.586 193.166 2656.542 198.036 L 2649.499 202.905 2640.263 211.523 L 2631.028 220.140 2624.487 228.820 L 2617.947 237.500 2612.049 249.025 L 2606.152 260.551 2603.537 267.498 L 2600.922 274.446 2598.503 283.987 L 2596.085 293.528 2594.447 303.014 L 2592.810 312.500 2592.349 335 L 2591.888 357.500 2592.908 359 L 2593.927 360.500 2654.500 360.500 L 2715.073 360.500 2716.021 359 L 2716.969 357.500 2716.993 348 L 2717.017 338.500 2717.994 327.500 L 2718.972 316.500 2720.501 310.500 L 2722.030 304.500 2725.600 297.189 L 2729.170 289.877 2734.961 283.959 L 2740.752 278.041 2747.927 274.602 L 2755.103 271.163 2762.301 269.945 L 2769.500 268.727 2781.500 269.361 L 2793.500 269.996 2800 271.463 L 2806.500 272.930 2808.679 272.965 L 2810.858 273 2811.910 267.750 L 2812.962 262.500 2818.443 227.500 L 2823.923 192.500 2824.569 187.416 L 2825.214 182.331 2822.357 181.163 L 2819.500 179.994 2810.500 178.043 L 2801.500 176.092 2790 174.502 L 2778.500 172.912 2757 172.515 L 2735.500 172.119 2728 173.052 M 1909 174.122 L 1901.500 174.984 1893.252 176.524 L 1885.003 178.064 1876.252 180.593 L 1867.500 183.123 1856.486 188.451 L 1845.472 193.779 1837.486 199.737 L 1829.500 205.696 1819.970 215.598 L 1810.441 225.500 1805.690 232.680 L 1800.939 239.860 1796.560 249.180 L 1792.181 258.500 1790.124 266 L 1788.067 273.500 1786.611 282 L 1785.154 290.500 1784.471 302 L 1783.788 313.500 1784.982 325.468 L 1786.176 337.436 1788.574 346.889 L 1790.972 356.342 1793.960 362.728 L 1796.948 369.114 1802.321 377.357 L 1807.695 385.600 1814.053 392.398 L 1820.412 399.195 1830.747 406.955 L 1841.083 414.715 1850.791 419.780 L 1860.500 424.845 1872.879 429.922 L 1885.259 434.999 1913.140 444.045 L 1941.020 453.092 1951.940 458.558 L 1962.861 464.025 1970.734 469.863 L 1978.608 475.701 1981.796 479.569 L 1984.984 483.437 1986.734 488.468 L 1988.483 493.500 1988.444 501.500 L 1988.405 509.500 1986.678 514.500 L 1984.950 519.500 1981.471 524.243 L 1977.991 528.985 1972.746 532.464 L 1967.500 535.942 1961.500 538.004 L 1955.500 540.066 1946 541.053 L 1936.500 542.041 1926.500 540.970 L 1916.500 539.899 1908 537.928 L 1899.500 535.958 1888.500 532.335 L 1877.500 528.713 1864 522.519 L 1850.500 516.326 1838.020 509.277 L 1825.539 502.228 1823.887 504.945 L 1822.235 507.661 1804.618 542.171 L 1787 576.680 1787 577.244 L 1787 577.807 1795.068 582.983 L 1803.137 588.159 1814.318 593.992 L 1825.500 599.826 1839.500 605.336 L 1853.500 610.845 1865.388 614.447 L 1877.275 618.048 1889.388 620.442 L 1901.500 622.836 1913.499 624.058 L 1925.498 625.279 1941.499 624.706 L 1957.500 624.133 1966.500 622.552 L 1975.500 620.970 1986 617.925 L 1996.500 614.880 2006.759 609.997 L 2017.019 605.114 2025.759 599.440 L 2034.500 593.767 2043.504 584.633 L 2052.508 575.500 2058.439 566.612 L 2064.370 557.725 2068.207 550.112 L 2072.044 542.500 2074.959 533.433 L 2077.875 524.367 2079.422 515.433 L 2080.969 506.500 2081.602 495 L 2082.235 483.500 2081.093 472.280 L 2079.950 461.061 2077.528 451.512 L 2075.106 441.964 2071.106 433.972 L 2067.106 425.980 2061.814 418.240 L 2056.521 410.500 2047.511 401.451 L 2038.500 392.403 2029.170 386.191 L 2019.839 379.980 2011.670 376.131 L 2003.500 372.282 1992 367.679 L 1980.500 363.076 1951.318 353.055 L 1922.137 343.033 1911.637 338.019 L 1901.137 333.005 1893.656 327.060 L 1886.175 321.115 1883.015 316.521 L 1879.854 311.927 1878.306 307.384 L 1876.758 302.840 1877.188 294.670 L 1877.619 286.500 1880.240 280.782 L 1882.860 275.064 1887.566 270.033 L 1892.271 265.003 1899.066 261.603 L 1905.860 258.204 1913.172 256.971 L 1920.484 255.738 1933.992 256.276 L 1947.500 256.815 1959 259.786 L 1970.500 262.757 1980.500 266.511 L 1990.500 270.264 2004.500 276.655 L 2018.500 283.047 2029.355 289.118 L 2040.211 295.189 2040.957 294.345 L 2041.702 293.500 2060.295 256.826 L 2078.887 220.151 2077.694 219.216 L 2076.500 218.281 2065.269 211.659 L 2054.038 205.037 2044.269 200.144 L 2034.500 195.251 2022.821 190.640 L 2011.142 186.029 2000.821 183.069 L 1990.500 180.110 1980 178.021 L 1969.500 175.933 1957.006 174.466 L 1944.512 173 1930.506 173.130 L 1916.500 173.259 1909 174.122 M 2309.500 173.673 L 2306.500 174.046 2296 175.620 L 2285.500 177.194 2276.119 179.628 L 2266.738 182.062 2258.119 185.610 L 2249.500 189.158 2241.500 193.702 L 2233.500 198.246 2226.311 203.601 L 2219.122 208.956 2209.421 218.228 L 2199.721 227.500 2193.393 235.602 L 2187.066 243.703 2180.871 254.102 L 2174.676 264.500 2170.828 272.790 L 2166.980 281.080 2162.926 292.790 L 2158.871 304.500 2156.013 316 L 2153.155 327.500 2151.526 337.278 L 2149.898 347.056 2148.469 361.778 L 2147.041 376.500 2147.031 399 L 2147.021 421.500 2148.060 433.500 L 2149.100 445.500 2150.583 455.500 L 2152.066 465.500 2154.631 477 L 2157.196 488.500 2161.658 502.135 L 2166.120 515.770 2173.062 529.984 L 2180.003 544.198 2185.634 552.849 L 2191.264 561.500 2197.590 569.096 L 2203.915 576.691 2210.655 582.996 L 2217.396 589.302 2225.073 594.994 L 2232.749 600.686 2242.834 605.866 L 2252.919 611.046 2261.988 614.549 L 2271.056 618.051 2279.642 620.090 L 2288.227 622.129 2298.864 623.545 L 2309.500 624.961 2322.500 624.962 L 2335.500 624.963 2345.970 623.475 L 2356.440 621.987 2365.919 619.464 L 2375.399 616.941 2384.449 613.365 L 2393.500 609.789 2402 605.230 L 2410.500 600.670 2417.763 595.796 L 2425.026 590.921 2432.597 584.319 L 2440.168 577.716 2448.672 567.608 L 2457.177 557.500 2463.178 548.500 L 2469.180 539.500 2475.511 526.500 L 2481.843 513.500 2484.987 504 L 2488.132 494.500 2491.522 481.500 L 2494.912 468.500 2496.464 459.383 L 2498.015 450.266 2499.020 442.383 L 2500.025 434.500 2500.968 416.500 L 2501.911 398.500 2500.996 378.500 L 2500.081 358.500 2498.102 344.461 L 2496.122 330.422 2493.634 319.461 L 2491.145 308.500 2487.499 296.500 L 2483.852 284.500 2481.283 278 L 2478.714 271.500 2474.424 262.904 L 2470.135 254.309 2463.165 243.904 L 2456.196 233.500 2449.712 225.919 L 2443.229 218.338 2435.628 211.708 L 2428.026 205.079 2420.763 200.204 L 2413.500 195.330 2407 191.721 L 2400.500 188.112 2391.244 184.539 L 2381.988 180.966 2371.744 178.475 L 2361.500 175.984 2350.199 174.492 L 2338.898 173 2325.699 173.150 L 2312.500 173.300 2309.500 173.673 M 477.189 176.572 L 467.877 177.928 458.441 180.440 L 449.004 182.952 440.252 186.553 L 431.500 190.155 425 193.742 L 418.500 197.330 411.336 202.137 L 404.172 206.945 395.455 214.209 L 386.738 221.474 378.766 230.987 L 370.795 240.500 363.810 251 L 356.825 261.500 351.425 272.500 L 346.025 283.500 341.105 298.500 L 336.185 313.500 333.510 325.487 L 330.835 337.475 328.921 350.551 L 327.006 363.627 326.065 381.781 L 325.124 399.935 326.024 420.218 L 326.923 440.500 328.494 452.386 L 330.064 464.272 332.554 476.063 L 335.043 487.854 338.983 501.177 L 342.923 514.500 345.546 520.939 L 348.170 527.378 352.710 536.439 L 357.250 545.500 361.739 552.500 L 366.227 559.500 373.666 568.696 L 381.105 577.891 389.106 585.417 L 397.106 592.943 405.303 598.387 L 413.500 603.830 423.420 608.918 L 433.339 614.005 445.690 618.023 L 458.041 622.041 469.270 623.956 L 480.500 625.871 491.500 626.560 L 502.500 627.250 515 626.067 L 527.500 624.885 537.500 622.886 L 547.500 620.887 557.750 617.471 L 568.001 614.055 579.082 608.503 L 590.163 602.951 597.332 598.086 L 604.500 593.220 612.500 586.220 L 620.500 579.220 627.500 571.023 L 634.500 562.826 638.819 556.663 L 643.137 550.500 648.673 540.753 L 654.208 531.006 659.146 519.354 L 664.083 507.703 667.445 496.601 L 670.808 485.500 673.370 473 L 675.932 460.500 677.566 448 L 679.199 435.500 679.708 407.500 L 680.217 379.500 678.632 362.945 L 677.048 346.391 674.555 332.892 L 672.061 319.394 668.462 307.009 L 664.863 294.625 660.879 284.562 L 656.895 274.500 650.866 263 L 644.837 251.500 639.494 243.500 L 634.151 235.500 628.060 228.355 L 621.968 221.210 611.756 212.438 L 601.545 203.665 594.708 199.243 L 587.871 194.820 576.686 189.461 L 565.500 184.102 556.500 181.489 L 547.500 178.876 534.500 176.943 L 521.500 175.009 504 175.112 L 486.500 175.215 477.189 176.572 M 864 176.472 L 855.500 177.724 849.500 178.979 L 843.500 180.234 834.673 183.113 L 825.845 185.992 815.797 191.153 L 805.749 196.314 797.625 202.298 L 789.500 208.281 782 215.937 L 774.500 223.593 768.884 232.047 L 763.269 240.500 759.099 248.797 L 754.930 257.094 752.048 265.797 L 749.166 274.500 747.403 284.500 L 745.639 294.500 745.636 312 L 745.632 329.500 747.306 338.695 L 748.981 347.890 751.830 355.695 L 754.680 363.500 758.931 371 L 763.182 378.500 768.092 385.124 L 773.003 391.748 780.251 398.631 L 787.500 405.514 795.524 411.167 L 803.548 416.819 814.024 422.318 L 824.500 427.816 836.066 432.349 L 847.631 436.881 875.101 445.923 L 902.570 454.964 912.030 459.568 L 921.489 464.171 928.131 468.587 L 934.774 473.003 940.698 479.336 L 946.622 485.669 948.432 491.423 L 950.242 497.176 949.793 505.338 L 949.344 513.500 946.605 519.238 L 943.866 524.976 939.303 529.539 L 934.739 534.103 929.120 536.926 L 923.500 539.749 916.303 541.374 L 909.105 543 898.803 542.996 L 888.500 542.992 879.423 541.520 L 870.346 540.048 858.141 536.501 L 845.935 532.954 838.718 530.066 L 831.500 527.179 820.821 522.171 L 810.142 517.163 798.679 510.582 L 787.216 504 786.662 504 L 786.107 504 767.304 541.172 L 748.500 578.343 748.227 578.991 L 747.953 579.640 760.734 587.265 L 773.514 594.890 783.046 599.314 L 792.578 603.738 807.334 609.419 L 822.090 615.100 837.295 618.946 L 852.500 622.793 863.500 624.346 L 874.500 625.898 886.500 626.566 L 898.500 627.234 911.500 626.065 L 924.500 624.896 934 622.938 L 943.500 620.979 951.500 618.351 L 959.500 615.723 968.871 611.373 L 978.242 607.024 986.871 601.322 L 995.500 595.621 1005.024 586.060 L 1014.548 576.500 1020.267 567.900 L 1025.985 559.300 1030.432 549.900 L 1034.879 540.500 1036.911 533 L 1038.942 525.500 1040.403 517 L 1041.864 508.500 1042.557 497.500 L 1043.250 486.500 1042.049 474.067 L 1040.848 461.634 1038.418 452.282 L 1035.988 442.931 1033.090 436.539 L 1030.192 430.147 1025.761 423.324 L 1021.331 416.500 1015.484 409.675 L 1009.637 402.850 999.897 395.014 L 990.156 387.179 982.828 382.879 L 975.500 378.580 959 371.712 L 942.500 364.845 913.309 354.961 L 884.118 345.077 873.809 339.905 L 863.500 334.733 858 330.994 L 852.500 327.256 847.679 322.095 L 842.859 316.934 841.001 312.717 L 839.143 308.500 838.463 302.432 L 837.783 296.363 839.008 290.432 L 840.234 284.500 842.517 279.980 L 844.800 275.460 849.767 270.814 L 854.734 266.168 859.883 263.560 L 865.031 260.951 871.265 259.304 L 877.500 257.658 890 257.641 L 902.500 257.625 911.500 259.386 L 920.500 261.147 933 265.204 L 945.500 269.261 957 274.256 L 968.500 279.251 980 285.076 L 991.500 290.900 996.681 293.931 L 1001.862 296.961 1012.322 276.731 L 1022.782 256.500 1031.391 239.261 L 1040 222.022 1040 221.548 L 1040 221.074 1029.019 214.555 L 1018.038 208.037 1008.151 203.076 L 998.264 198.114 988.513 194.056 L 978.762 189.998 966.554 186.095 L 954.347 182.192 944.424 180.138 L 934.500 178.084 922.030 176.542 L 909.560 175 891.030 175.110 L 872.500 175.219 864 176.472 M 2315.734 264.046 L 2311.969 264.975 2308.234 266.886 L 2304.500 268.796 2300.636 272.557 L 2296.772 276.318 2293.515 281.409 L 2290.259 286.500 2287.064 294 L 2283.870 301.500 2281.449 310.803 L 2279.029 320.106 2277.066 331.803 L 2275.102 343.500 2273.824 356 L 2272.546 368.500 2272.571 400.500 L 2272.596 432.500 2274.344 447 L 2276.091 461.500 2278.513 473.558 L 2280.934 485.617 2284.556 496.058 L 2288.178 506.500 2291.339 512.461 L 2294.500 518.423 2299.740 524.084 L 2304.979 529.745 2310.240 532.097 L 2315.500 534.449 2323.500 534.475 L 2331.500 534.500 2336.180 532.694 L 2340.860 530.888 2344.930 527.668 L 2348.999 524.447 2353.112 518.974 L 2357.226 513.500 2360.485 507 L 2363.744 500.500 2366.337 492.740 L 2368.930 484.981 2371.429 473.145 L 2373.928 461.308 2375.554 446.404 L 2377.181 431.500 2377.146 399 L 2377.110 366.500 2375.537 351.764 L 2373.964 337.029 2372.422 328.764 L 2370.881 320.500 2368.870 313.500 L 2366.859 306.500 2364.936 301.229 L 2363.012 295.958 2360.608 291.214 L 2358.205 286.471 2353.616 280.367 L 2349.028 274.263 2343.764 270.659 L 2338.500 267.055 2334.371 265.615 L 2330.242 264.174 2324.871 263.646 L 2319.500 263.117 2315.734 264.046 M 494.929 265.305 L 490.359 266.600 485.768 269.290 L 481.178 271.980 476.135 277.638 L 471.092 283.296 467.644 289.898 L 464.196 296.500 461.194 305.057 L 458.193 313.613 456.159 323.057 L 454.125 332.500 452.518 344 L 450.911 355.500 450.032 376.121 L 449.153 396.742 450.018 420.621 L 450.884 444.500 452.488 456.500 L 454.093 468.500 455.966 477.083 L 457.838 485.666 460.490 493.583 L 463.141 501.500 467.321 509.453 L 471.500 517.407 477.500 523.511 L 483.500 529.615 488 531.689 L 492.500 533.764 498.369 534.978 L 504.239 536.191 508.869 535.539 L 513.500 534.887 518.703 532.393 L 523.905 529.899 528.374 524.929 L 532.842 519.959 537.331 510.730 L 541.820 501.500 543.955 494.500 L 546.091 487.500 548.485 475.474 L 550.879 463.448 552.632 448.474 L 554.384 433.500 554.394 400 L 554.404 366.500 552.646 352.076 L 550.887 337.651 548.904 327.576 L 546.921 317.500 543.888 307.500 L 540.854 297.500 536.913 289.281 L 532.972 281.061 527.690 275.651 L 522.408 270.240 517.154 267.578 L 511.899 264.915 505.700 264.463 L 499.500 264.011 494.929 265.305 M 1322.928 391.115 L 1315.500 396.230 1309.410 401.074 L 1303.320 405.918 1296.910 412.720 L 1290.500 419.523 1285.837 426.069 L 1281.174 432.614 1277.645 439.057 L 1274.116 445.500 1271.619 454.151 L 1269.122 462.802 1268.011 472.899 L 1266.900 482.995 1267.523 489.248 L 1268.145 495.500 1269.666 503.500 L 1271.186 511.500 1274.156 518.984 L 1277.127 526.468 1282.485 534.521 L 1287.844 542.574 1296.172 550.544 L 1304.500 558.513 1310.294 562.339 L 1316.088 566.165 1322.783 569.201 L 1329.477 572.236 1338.883 574.622 L 1348.288 577.008 1360.148 577.892 L 1372.007 578.775 1383.322 577.931 L 1394.638 577.086 1404.548 574.939 L 1414.458 572.792 1421.479 570.270 L 1428.500 567.749 1435 564.478 L 1441.500 561.207 1450.500 555.240 L 1459.500 549.273 1466.425 543.386 L 1473.350 537.500 1473.754 536.263 L 1474.158 535.026 1461.329 521.730 L 1448.500 508.435 1425 483.494 L 1401.500 458.554 1390 446.510 L 1378.500 434.465 1364.556 419.483 L 1350.612 404.500 1341.576 395.250 L 1332.540 386 1331.448 386 L 1330.356 386 1322.928 391.115 M 111.750 440.080 L 110 441.099 109.991 450.800 L 109.983 460.500 108.977 471.865 L 107.971 483.229 106.872 487.865 L 105.772 492.500 101.738 501 L 97.703 509.500 91.102 516.076 L 84.500 522.652 78.885 525.292 L 73.269 527.931 68.385 529.117 L 63.500 530.302 50.500 530.266 L 37.500 530.230 29.500 528.615 L 21.500 527 18.817 527 L 16.135 527 15.602 528.750 L 15.068 530.500 8.986 569 L 2.904 607.500 2.702 612.477 L 2.500 617.454 10.500 619.760 L 18.500 622.067 30.244 623.991 L 41.988 625.916 58.911 627.138 L 75.834 628.361 90.167 627.174 L 104.500 625.987 114.500 623.936 L 124.500 621.885 134.825 618.445 L 145.151 615.005 156.168 609.370 L 167.186 603.734 174.843 598.045 L 182.500 592.356 190.266 584.428 L 198.032 576.500 204.049 568.500 L 210.067 560.500 216.001 548.500 L 221.935 536.500 225.421 525.834 L 228.908 515.168 230.947 504.334 L 232.987 493.500 233.985 484.500 L 234.984 475.500 234.992 458.450 L 235 441.400 233.800 440.200 L 232.600 439 173.050 439.030 L 113.500 439.061 111.750 440.080 M 2593.684 446.250 L 2591.986 447.500 2592.243 622.500 L 2592.500 797.500 2653.936 797.758 L 2715.372 798.016 2716.171 796.758 L 2716.969 795.500 2716.985 621.821 L 2717 448.143 2715.429 446.571 L 2713.857 445 2654.620 445 L 2595.382 445 2593.684 446.250" stroke="none" fill="#000000" fill-rule="evenodd"/></svg>